<svg version="1.2" xmlns="http://www.w3.org/2000/svg" viewBox="0 0 164 38" width="164" height="38"><style>.a{fill:#cd2623}</style><path fill-rule="evenodd" class="a" d="m50.1 4c0 0 0.2 0.2 0.4 0.4 0.1 0.2 0.4 0.5 0.6 0.7 0.2 0.1 0.5 0.4 0.6 0.4 0.2 0.1 0.2 0.1 0.2 0 0 0 0-0.2-0.1-0.4q-0.1-0.3 0-0.4 0.1-0.1 0.4 0.1c0.2 0.1 0.5 0.3 0.7 0.4 0.2 0.1 0.9 0.3 1.5 0.5 1.1 0.4 1.3 0.5 1.7 0.8 0.3 0.2 0.7 0.6 0.9 0.8 0.2 0.2 0.5 0.6 0.7 0.9 0.1 0.3 0.4 0.9 0.5 1.5 0.2 0.5 0.4 1.6 0.6 2.3 0.2 0.7 0.4 1.5 0.5 1.8 0.1 0.2 0.3 0.8 0.5 1.2 0.1 0.4 0.4 1.1 0.7 1.6 0.2 0.4 0.6 1.2 0.8 1.7 0.3 0.6 0.7 1.4 0.8 1.8 0.2 0.5 0.3 1.1 0.4 1.3 0 0.3 0.1 0.9 0.1 1.4 0.1 0.6 0.1 0.9-0.1 1.4 0 0.3-0.2 0.7-0.3 1-0.2 0.3-0.3 0.5-0.3 0.5q-0.1-0.1-0.2-0.9c-0.1-0.5-0.2-1.1-0.2-1.5-0.1-0.3-0.3-0.9-0.4-1.3-0.1-0.5-0.3-0.8-0.3-0.8 0 0 0 0.3 0.1 0.7 0.1 0.4 0.2 1.1 0.3 1.6 0 0.5 0.1 1.3 0.1 1.8 0.1 0.5 0 1.4 0 2 0 0.6-0.1 1.4-0.2 1.7 0 0.3-0.2 0.9-0.3 1.3-0.1 0.4-0.3 1-0.4 1.4-0.2 0.5-0.5 1.1-0.7 1.5-0.1 0.3-0.3 0.6-0.4 0.7-0.1 0-0.7 0.1-1.9 0.1-0.9 0-2 0-2.4-0.1-0.5 0-0.9-0.1-1-0.1-0.2-0.1-0.2-0.2-0.3-0.7q0-0.5 0-0.5c0.1 0 0.3-0.1 0.4-0.1 0.2-0.1 0.6-0.2 0.8-0.3 0.3-0.1 0.4-0.2 0.4-0.3 0 0-0.4 0.1-1 0.2-0.5 0.1-1.5 0.2-2.1 0.2-0.7 0.1-1.5 0.1-2 0.1-0.4 0-1.3 0-2-0.1-0.7 0-1.5-0.1-1.9-0.2-0.4-0.1-0.7-0.1-0.8-0.1q-0.1-0.1-0.1 0c0 0 0.2 0.1 0.5 0.3 0.3 0.1 0.6 0.2 0.8 0.3 0.3 0 0.3 0 0.2 0.3 0 0.1 0 0.4 0 0.5-0.1 0.3-0.1 0.3-0.3 0.4-0.1 0-0.6 0.1-1 0.1-0.4 0.1-1.5 0.1-2.4 0.1-0.9 0-1.8-0.1-1.8-0.1-0.1 0-0.3-0.3-0.4-0.6-0.2-0.3-0.5-0.9-0.6-1.3-0.2-0.4-0.4-1-0.5-1.4-0.1-0.4-0.3-1-0.3-1.3-0.1-0.4-0.2-1-0.2-1.5-0.1-0.5-0.1-1.4-0.1-2.3 0.1-0.8 0.1-1.8 0.2-2.3 0.1-0.4 0.2-1.1 0.3-1.5 0.1-0.4 0.1-0.7 0.1-0.6 0 0-0.2 0.3-0.3 0.5-0.1 0.3-0.2 0.8-0.3 1.1-0.1 0.4-0.2 0.9-0.3 1.3 0 0.3-0.1 0.8-0.1 1.1 0 0.3-0.1 0.5-0.1 0.5-0.1 0-0.2-0.1-0.3-0.3-0.1-0.2-0.2-0.6-0.3-0.9-0.2-0.4-0.2-0.7-0.2-1.4 0-0.6 0.1-1.1 0.2-1.6 0-0.4 0.2-1 0.3-1.3 0.1-0.3 0.6-1.4 1.1-2.3 0.4-0.9 0.9-1.9 1.1-2.2 0.1-0.4 0.3-0.9 0.5-1.3 0.1-0.4 0.3-1.2 0.5-2 0.2-0.7 0.5-1.8 0.7-2.4 0.2-0.6 0.4-1.3 0.4-1.5 0.1-0.1 0.3-0.5 0.5-0.7 0.1-0.2 0.4-0.5 0.5-0.7 0.2-0.1 0.5-0.4 0.8-0.5 0.2-0.2 0.9-0.6 1.5-0.9 0.6-0.3 1.2-0.7 1.4-0.8 0.3-0.1 0.5-0.2 0.5-0.2 0.1 0 0.2 0.3 0.2 0.6 0 0.2 0.1 0.5 0.1 0.6 0 0 0.2-0.1 0.4-0.4 0.2-0.3 0.5-0.7 0.8-1 0.3-0.2 0.5-0.4 0.6-0.4zm4.8 7.8c-0.1 0.2-0.1 0.4-0.1 0.5 0 0 0 0.2 0.1 0.4 0.1 0.1 0.2 0.3 0.3 0.4 0.1 0.1 0.3 0.1 0.5 0.1 0.1 0 0.4 0 0.5-0.1 0.1-0.1 0.2-0.2 0.3-0.4 0.1-0.1 0.1-0.3 0.1-0.4 0-0.1 0-0.3-0.1-0.4 0-0.2-0.1-0.3-0.3-0.4q-0.2-0.2-0.5-0.2c-0.1 0-0.3 0.1-0.4 0.1-0.1 0.1-0.3 0.3-0.4 0.4zm-11.1 0.8c-0.1 0.2 0 0.3 0.1 0.5 0.1 0.2 0.2 0.4 0.4 0.5 0.1 0.1 0.3 0.1 0.4 0.1 0.1 0 0.3 0 0.4 0 0.1-0.1 0.2-0.2 0.3-0.3 0.1-0.1 0.2-0.3 0.2-0.4 0-0.1 0-0.3 0-0.5 0-0.1-0.2-0.3-0.3-0.4-0.2-0.3-0.3-0.3-0.6-0.3-0.3 0-0.4 0-0.6 0.2q-0.3 0.3-0.3 0.6zm12.7 1.1c-0.2 0.1-0.5 0.2-0.7 0.3-0.2 0-0.8 0.2-1.3 0.3-0.5 0.1-1.2 0.2-1.5 0.3-0.4 0-1.2 0.1-1.7 0.2-0.6 0.1-1.7 0.2-2.4 0.3-0.8 0-1.8 0.1-2.5 0.1-1.1-0.1-1.1-0.1-1.6-0.3-0.2-0.1-0.4-0.2-0.4-0.2 0 0.1 0.1 0.2 0.2 0.3 0.2 0.2 0.5 0.4 0.7 0.5 0.4 0.1 0.5 0.1 1.5 0.1 0.6 0 1.6 0 2.3-0.1 0.6-0.1 1.2-0.1 1.3-0.1q0.1 0 0.1 0.3c0 0.1 0.2 0.5 0.3 0.8 0.1 0.4 0.2 0.7 0.4 0.9 0.2 0.1 0.5 0.3 0.6 0.4q0.3 0.1 0.8 0.1c0.3 0 0.6-0.1 0.9-0.2 0.2-0.1 0.5-0.3 0.6-0.5 0.2-0.2 0.3-0.4 0.4-0.6 0-0.1 0-0.5 0-0.7-0.1-0.3-0.1-0.6-0.1-0.8l-0.1-0.3c0.9-0.2 1.3-0.3 1.4-0.4 0.2 0 0.5-0.1 0.6-0.2 0.3-0.1 0.4-0.3 0.5-0.6 0.1-0.2 0.2-0.4 0.2-0.4q0-0.1-0.1 0.1c-0.1 0.1-0.3 0.3-0.4 0.4zm4.3-7.1c0.1 0 0.2 0.1 0.3 0.2 0.2 0.2 0.4 0.5 0.5 0.8 0.3 0.4 0.3 0.5 0.3 1.1 0 0.3-0.1 1-0.2 1.6-0.1 0.9-0.2 1.1-0.3 1.2-0.1 0.1-0.3 0.2-0.5 0.3-0.1 0.1-0.5 0.3-0.9 0.4-0.4 0.2-0.5 0.2-0.6 0.2-0.1-0.1-0.1-0.4-0.2-0.7-0.1-0.3-0.3-0.8-0.4-1.2-0.1-0.4-0.2-0.8-0.2-0.8 0.1 0 0.4 0 0.9-0.1 0.5 0 0.8 0 1.2-0.2v-1.4c0-1.2 0-1.4 0.1-1.4zm-20.9 0.1c0 0 0 0.5 0.1 2.7l0.2 0.2c0.2 0 0.6 0.1 1.1 0.1 0.4 0 0.7 0.1 0.7 0.1 0 0 0 0.2-0.1 0.5-0.1 0.2-0.3 0.8-0.4 1.2-0.1 0.5-0.2 0.9-0.2 0.9-0.1 0-0.4-0.1-0.8-0.2-0.3-0.2-0.8-0.4-1-0.5-0.1-0.1-0.3-0.2-0.3-0.3 0 0-0.1-0.4-0.2-0.9-0.1-0.4-0.1-1.1-0.2-2.3l0.3-0.5c0.1-0.2 0.3-0.6 0.5-0.7 0.1-0.2 0.2-0.3 0.3-0.3zm85.5 1v2.3h-1.2c-0.6 0.1-2.2 0.1-5.8 0.2l0.1 2.9h6.9l-0.1 2.1h-6.7v1.4c0 1.2 0.1 1.3 0.2 1.3 0 0 1.5-0.1 3.3-0.2 1.7-0.1 3.2-0.1 3.2-0.1 0.1 0 0.1 0.6 0 2.5h-4.1c-2.2 0.1-4.1 0.1-4.1 0.1 0 0-0.1-2.8-0.2-6.2-0.1-3.4-0.2-6.2-0.2-6.2 0 0 1.2 0 2.6-0.1 1.4 0 3.4 0 6.1 0zm-10.4 0c1 0 1 0 1 0.2 0 0.1-0.6 2.9-2.7 12.2h-2.6l-1.8-6.1c-0.9-3.3-1.7-6.1-1.7-6.1 0 0 0.5-0.1 2-0.1l1.4 4.7c0.7 2.5 1.4 4.7 1.4 4.7q0.1 0.1 0.1 0.1c0-0.1 0.4-2.2 0.9-4.8 0.6-2.6 1-4.7 1-4.7 0-0.1 0.4-0.1 1-0.1zm-11 0.1h2.5v0.2c0 0.1 0.1 2.6 0.2 5.5 0 3 0.1 5.6 0.2 6.6h-2.7v-3.6c-0.1-2-0.1-4.7-0.1-6.1zm-22.3 0c0.4 0 0.4 0 0.4 0.3 0 0.1 0 2.4 0.1 5.1 0.1 2.7 0.2 5.5 0.2 7.2h-1.8v-4.6l-0.8 0.1q-0.7 0-2 0.1v4.3h-1.7v-0.4c0-0.2-0.1-2.8-0.1-5.7-0.1-2.9-0.2-5.5-0.2-6.2l2.8-0.1c1.6 0 3-0.1 3.1-0.1zm-4 3.8c0 1 0 2 0.1 2.2v0.5c2.1-0.1 2.7-0.1 2.8-0.1 0 0-0.1-1-0.1-2.1-0.1-1.2-0.1-2.2-0.1-2.2 0 0-0.6-0.1-1.4-0.1h-1.3zm-4.1-3.7c0.9 0 1 0 1 0.2 0 0 0.1 2.7 0.2 5.9 0.2 3.2 0.3 5.9 0.3 6.4h-1.2c-0.7 0-1.2 0-1.2 0 0 0-0.1-1.6-0.2-3.6-0.1-1.9-0.2-3.5-0.2-3.6-0.1 0-0.5 0.8-1.1 1.7-0.6 1-1.1 1.7-1.2 1.7 0 0-0.7-0.8-1.5-1.8-0.7-1.1-1.4-1.9-1.4-1.9 0 0 0 0.3 0 0.7 0 0.5 0 2.2 0.1 6.8l-0.9-0.1c-0.4 0-0.9 0-1.3-0.1v-3c0-1.6 0.1-4.3 0.1-9.1h2.1l1.3 2.8c0.8 1.6 1.4 2.8 1.4 2.8 0.1 0 0.7-1.2 1.4-2.7 0.6-1.5 1.2-2.8 1.3-2.9 0-0.1 0.1-0.1 1-0.2zm18.6 0.1l0.1 1.2c0 0.6 0 1.1 0 1.1 0 0.1-1.6 0-3.5-0.2-2-0.1-3.5-0.2-3.5-0.2 0 0-0.1 0.6-0.1 2.6l3.6 0.3c2.1 0.2 3.7 0.3 3.8 0.4 0 0 0 1.2 0.1 2.7 0 1.5 0.1 3.1 0.1 4.2l-4.1 0.1c-2.2 0.1-4.4 0.1-5.3 0.1l-0.1-1.2c0-0.7 0-1.3 0-1.3 0 0 1.7 0.1 3.7 0.3 2 0.1 3.7 0.2 3.7 0.2 0.1 0 0.1-0.8 0.2-1.8 0-1 0.1-1.8 0.1-1.9-0.1 0-1.6-0.1-3.4-0.1-1.8-0.1-3.5-0.1-4.2-0.2l-0.1-0.4c0-0.3 0-1.7-0.1-5.8l2.6-0.1c1.4 0 3.5 0 6.4 0zm10.6 0v0.7c0 0.4 0 0.9 0 1.3h-3c-1.6 0.1-3.2 0.1-4.4 0.2l0.2 2.6h0.3c0.2 0.1 1.8 0 3.6-0.1 1.8 0 3.3-0.1 3.3-0.1 0 0 0.1 1.7 0.2 3.8 0.1 2 0.2 3.7 0.2 3.7-0.1 0-2.1 0.1-9.3 0.1v-0.8c-0.1-0.4-0.1-0.9-0.1-1 0-0.3 0-0.3 0.1-0.3 0.1 0 1.8-0.1 3.7-0.2 2-0.1 3.6-0.1 3.6-0.2 0 0 0.1-0.7 0.2-3.1h-0.9c-0.5 0-2.2 0.1-3.8 0.2-1.6 0-3 0.1-3 0 0 0-0.1-1.4-0.2-3.2-0.1-1.8-0.2-3.3-0.2-3.4 0-0.1 0.2-0.1 2.8-0.2 1.5 0 3.6 0 6.7 0zm22.5 15v0.3c0 0.2 0 1.3 0.1 2.5 0 1.2 0.1 2.4 0.1 3.5h-1.9c-1 0-1.9 0-2 0 0 0 0.9 0.6 3.9 2.3v1.1c0 0.6-0.1 1.1-0.1 1.1 0 0-1.3-0.8-2.8-1.8-1.5-1-2.8-1.8-2.8-1.8 0 0 0.1 0.8 0.1 1.8 0.1 1 0.1 1.8 0.1 1.8 0 0-0.4 0-1.6-0.1v-0.4c0-0.2-0.1-2.2-0.2-4.4 0-2.3-0.1-4.5-0.2-5.9h1.8c1 0 2.7 0 5.5 0zm-5.5 2.3c-0.1 0 0 0.5 0 1.2 0 0.6 0 1.2 0.1 1.2v0.2c4 0 4.1 0 4.1-0.1 0-0.1 0-0.7-0.1-1.5 0-0.7-0.1-1.3-0.1-1.4q0 0-0.1 0c-0.1 0-1 0.1-2 0.2-1.1 0.1-1.9 0.2-1.9 0.2zm-2.8-2.3v1.1c0.1 0.5 0.1 1 0.1 1 0 0-1.1 0-2.4 0.1-1.4 0-2.7 0.1-3.4 0.1v2.5l5.9-0.1 0.1 0.6q0 0.5 0.1 1.2l-1.1 0.1c-0.7 0-2 0-4.8 0v2.3l2.4-0.1c1.3 0 2.6-0.1 3.4-0.1l0.1 0.6q0 0.5 0.1 1.4l-3.6 0.1c-2 0-3.7 0.1-3.7 0 0 0-0.1-2.2-0.2-4.9-0.1-2.7-0.1-5.1-0.1-5.7l2.8-0.1c1.6 0 3.2 0 4.3-0.1zm-35.3 0.1c0.6 0 0.6 0 0.6 0.2 0 0.1 0.1 2.3 0.2 4.9 0.1 2.7 0.2 5 0.2 5.6h-3.9c-2.2 0-4 0-4-0.1 0 0-0.1-1.9-0.1-4.3-0.1-2.4-0.2-4.7-0.2-6l3.3-0.2c1.9 0 3.6-0.1 3.9-0.1zm-5.7 2.7c0 0.6 0 2.1 0.1 3.5 0 1.3 0.1 2.5 0.1 2.7v0.2h5.1c-0.1-0.6-0.2-2.2-0.3-4-0.2-1.7-0.3-3.1-0.3-3.2-0.1 0-1.1 0-2.4-0.1h-2.4zm-4.5-2.7h1c0.8 0 0.9 0 0.9 0.1 0 0.1 0.1 2.5 0.3 5.3 0.2 2.8 0.3 5.1 0.3 5.2 0 0.1-0.3 0.1-2.2 0.1v-0.3c0-0.2 0-1.4-0.1-2.8-0.1-1.4-0.2-2.6-0.2-2.7 0-0.3 0-0.3 0-0.2-0.1 0-0.5 0.6-0.9 1.3-0.4 0.7-0.9 1.4-0.9 1.4q-0.2 0.2-0.2 0.1c-0.1 0-0.6-0.8-1.2-1.6-0.6-0.9-1.2-1.6-1.2-1.6 0-0.1 0 1.4 0 6.4h-2.1v-10.5h2l1.2 2.2c0.9 1.5 1.3 2.2 1.3 2.1 0.1 0 0.5-0.9 0.9-2 0.5-1 0.9-2 1-2.2zm18.3 0h1.7v0.3c0 0.1 0.1 2.3 0.2 4.8 0.1 2.5 0.2 4.8 0.3 5.7h-3l-2.1-3.9c-1.1-2.1-2.1-3.9-2.1-3.8 0 0 0.1 1.6 0.2 3.5 0.2 2 0.3 3.7 0.4 4.1h-1.7v-0.2c-0.1-0.2-0.1-2.3-0.2-4.7-0.1-2.4-0.2-4.7-0.3-5.7h2.4l2 3.9c1.1 2.2 2.1 4.1 2.2 4.2 0.1 0.2 0.1 0.2 0.1-3.5 0-2-0.1-3.9-0.1-4.2zm2.7 0.1h8l0.1 0.2c0 0.1 0 0.6 0 1.9l-1-0.1c-0.6 0-2 0-5.3-0.1v0.9c0 0.6 0 1 0 1 0 0.1 1.5 0.2 3.3 0.3 1.8 0.2 3.3 0.3 3.3 0.3 0 0 0 1.4 0.1 3.1 0.1 1.7 0.1 3 0.1 3.1 0 0-1.8 0-4 0-2.2 0.1-4 0.1-4 0.1 0 0-0.1-0.5-0.1-1.1-0.1-0.6-0.1-1.1-0.1-1.1 0-0.1 1.2 0 2.6 0.1 1.5 0.1 2.9 0.2 3.8 0.3l0.1-1.5c0-0.8 0-1.5 0-1.6-0.1 0-1.5-0.1-3.3-0.2-1.8-0.1-3.3-0.2-3.3-0.2 0 0-0.1-1.1-0.2-2.5-0.1-1.3-0.1-2.5-0.1-2.7zm16.7 0v2.4l-2.8-0.1v0.1c0 0.1 0.1 2 0.2 4.2 0 2.3 0.1 4.1 0.1 4.1 0 0-0.5 0-2 0.1v-1.7c0-1-0.1-2.9-0.2-6.9h-1.1c-0.6-0.1-1.3-0.1-1.8-0.2l-0.1-0.9c0-0.5-0.1-0.9-0.1-0.9 0 0 1.4 0 3.1-0.1 1.6 0 3.4 0 4.7-0.1zm-55.2-8.3c0 0 0.1 0.3 0.1 0.7 0.1 0.7 0.1 0.7 0 1.1-0.1 0.2-0.2 0.3-0.5 0.5-0.3 0.2-0.5 0.2-1 0.2-0.4 0.1-0.6 0-0.8-0.1q-0.3-0.1-0.5-0.4c-0.1-0.2-0.3-0.6-0.3-0.9-0.1-0.3-0.2-0.5-0.2-0.6q0-0.1 0.7-0.2c0.6 0 0.7 0 0.7 0 0.1 0.1 0.2 0.4 0.3 0.8 0.1 0.4 0.3 0.7 0.3 0.6 0 0 0-0.4-0.1-0.8-0.1-0.4-0.1-0.7-0.1-0.7 0 0 0.3-0.1 0.7-0.2 0.3 0 0.6-0.1 0.7 0z"/></svg>